<svg width="33" height="32" viewBox="0 0 33 32" fill="none" xmlns="http://www.w3.org/2000/svg">
<path d="M12.2262 15.602C13.2635 17.7227 14.9825 19.4339 17.1079 20.4615C17.2634 20.5352 17.4354 20.5671 17.607 20.5541C17.7786 20.5412 17.9438 20.4837 18.0865 20.3875L21.2159 18.3007C21.3543 18.2084 21.5136 18.1521 21.6792 18.1369C21.8449 18.1217 22.0117 18.148 22.1646 18.2135L28.0193 20.7227C28.2182 20.8071 28.3842 20.954 28.4924 21.141C28.6006 21.3281 28.645 21.5452 28.6191 21.7597C28.434 23.2078 27.7275 24.5387 26.6318 25.5033C25.5362 26.4679 24.1265 27 22.6667 27.0001C18.158 27.0001 13.834 25.2091 10.6459 22.0209C7.45775 18.8328 5.66669 14.5088 5.66669 10.0001C5.66676 8.54034 6.19893 7.13064 7.16354 6.03497C8.12815 4.9393 9.45906 4.2328 10.9071 4.04775C11.1216 4.02179 11.3387 4.06625 11.5258 4.17443C11.7128 4.2826 11.8597 4.44864 11.9441 4.64753L14.4555 10.5073C14.5204 10.6588 14.5469 10.8241 14.5325 10.9884C14.5181 11.1526 14.4633 11.3108 14.373 11.4488L12.2935 14.6263C12.1988 14.7692 12.1429 14.9342 12.1311 15.1053C12.1193 15.2763 12.1521 15.4475 12.2262 15.602Z" fill="white"/>
</svg>
