<svg width="7" height="12" viewBox="0 0 7 12" fill="none" xmlns="http://www.w3.org/2000/svg">
<path d="M6.32994 5.29019L2.08994 1.05019C1.99698 0.956464 1.88638 0.88207 1.76452 0.831301C1.64266 0.780533 1.51195 0.754395 1.37994 0.754395C1.24793 0.754395 1.11723 0.780533 0.995366 0.831301C0.873507 0.88207 0.762906 0.956464 0.669943 1.05019C0.483692 1.23756 0.37915 1.49101 0.37915 1.75519C0.37915 2.01938 0.483692 2.27283 0.669943 2.46019L4.20994 6.00019L0.669943 9.54019C0.483692 9.72756 0.37915 9.98101 0.37915 10.2452C0.37915 10.5094 0.483692 10.7628 0.669943 10.9502C0.763383 11.0429 0.874199 11.1162 0.996037 11.166C1.11787 11.2157 1.24834 11.241 1.37994 11.2402C1.51155 11.241 1.64201 11.2157 1.76385 11.166C1.88569 11.1162 1.9965 11.0429 2.08994 10.9502L6.32994 6.71019C6.42367 6.61723 6.49806 6.50663 6.54883 6.38477C6.5996 6.26291 6.62574 6.1322 6.62574 6.00019C6.62574 5.86818 6.5996 5.73747 6.54883 5.61562C6.49806 5.49376 6.42367 5.38316 6.32994 5.29019Z" fill="#21ABBA"/>
</svg>
