<svg width="8" height="11" viewBox="0 0 8 11" fill="none" xmlns="http://www.w3.org/2000/svg">
<path d="M6.82994 4.78995L2.58994 0.549949C2.49698 0.45622 2.38638 0.381826 2.26452 0.331057C2.14266 0.280288 2.01195 0.25415 1.87994 0.25415C1.74793 0.25415 1.61723 0.280288 1.49537 0.331057C1.37351 0.381826 1.26291 0.45622 1.16994 0.549949C0.983692 0.737311 0.87915 0.990763 0.87915 1.25495C0.87915 1.51913 0.983692 1.77259 1.16994 1.95995L4.70994 5.49995L1.16994 9.03995C0.983692 9.22731 0.87915 9.48076 0.87915 9.74495C0.87915 10.0091 0.983692 10.2626 1.16994 10.4499C1.26338 10.5426 1.3742 10.616 1.49604 10.6657C1.61787 10.7155 1.74834 10.7407 1.87994 10.7399C2.01155 10.7407 2.14201 10.7155 2.26385 10.6657C2.38569 10.616 2.4965 10.5426 2.58994 10.4499L6.82994 6.20995C6.92367 6.11699 6.99807 6.00638 7.04883 5.88453C7.0996 5.76267 7.12574 5.63196 7.12574 5.49995C7.12574 5.36794 7.0996 5.23723 7.04883 5.11537C6.99807 4.99351 6.92367 4.88291 6.82994 4.78995Z" fill="#FFA300"/>
</svg>
